<svg xmlns="http://www.w3.org/2000/svg" width="60" height="44" viewBox="0 0 60 44"><g transform="translate(17 -84)"><g transform="translate(-17 84)"><path d="M20.8,5a6.257,6.257,0,0,0-6.429,6,5.717,5.717,0,0,0,1.561,3.863L9.6,25.109A6.765,6.765,0,0,0,8.429,25,6.257,6.257,0,0,0,2,31a6.257,6.257,0,0,0,6.429,6,6.257,6.257,0,0,0,6.429-6,5.715,5.715,0,0,0-1.565-3.863l6.336-10.246a6.309,6.309,0,0,0,2.34,0L35.729,39.137A5.715,5.715,0,0,0,34.164,43a6.444,6.444,0,0,0,12.857,0,5.717,5.717,0,0,0-1.561-3.863L54.4,24.68a6.769,6.769,0,0,0,1.172.109,6.257,6.257,0,0,0,6.429-6,6.444,6.444,0,0,0-12.857,0A5.718,5.718,0,0,0,50.7,22.652l-8.94,14.457a6.309,6.309,0,0,0-2.34,0L25.664,14.863A5.715,5.715,0,0,0,27.229,11,6.257,6.257,0,0,0,20.8,5Z" transform="translate(-2 -5)" fill="#d37200"/></g></g></svg>