<svg xmlns="http://www.w3.org/2000/svg" width="60" height="51.953" viewBox="0 0 60 51.953"><g transform="translate(-6 -16.411)"><path d="M58.736,12.507a16.08,16.08,0,0,0-3.549-5.315,16.4,16.4,0,0,0-23.144,0l-1.95,1.95-1.95-1.95A16.371,16.371,0,0,0,.2,18.855,16.1,16.1,0,0,0,4,29.236h7.148L8.631,26.72a11.247,11.247,0,1,1,15.9-15.914l3.8,3.783a2.666,2.666,0,0,0,3.632,0l3.7-3.782a11.282,11.282,0,0,1,16,15.913l-6.815,6.815-5,5-9.614,9.614-10.4-10.4h3.333a2.566,2.566,0,0,0,2.183-1.233l5-8.331,3.333,5.7a2.583,2.583,0,0,0,2.233,1.266h2.966a2.566,2.566,0,1,0,0-5.115h-1.55l-4.8-8.131a2.533,2.533,0,0,0-2.216-1.266h0a2.533,2.533,0,0,0-2.183,1.233L21.661,32.652H2.566a2.566,2.566,0,1,0,0,5.132h9.881L15.863,41.2,28.326,53.63a2.616,2.616,0,0,0,3.632,0L55.287,30.3a16.363,16.363,0,0,0,3.449-17.8Z" transform="translate(6 14)" fill="#d37200"/></g></svg>