<svg xmlns="http://www.w3.org/2000/svg" width="282" height="118" viewBox="0 0 282 118"><text transform="translate(0 85)" fill="#d37200" font-size="65" font-family="Pacifico-Regular, Pacifico"><tspan x="0" y="0">Tra</tspan></text><path d="M10.727,27.106l-1.4,3.468H3.019a3.222,3.222,0,0,0,0,6.43h7.308a4.522,4.522,0,0,0,4.162-2.923l.829-2.062-1.007-.633a9.4,9.4,0,0,1-3.585-4.281Zm25.505-9.393H32.078l-2.459-5.35A9.207,9.207,0,0,0,23.79,7.245L17.083,5.121A8.594,8.594,0,0,0,9.455,6.843L5.712,9.9a3.353,3.353,0,0,0-.559,4.507A2.9,2.9,0,0,0,9.387,15l3.745-3.055a2.8,2.8,0,0,1,2.384-.617l1.387.439-3.535,8.781a6.666,6.666,0,0,0,2.482,8.069l8.018,5.041-2.592,8.815A3.258,3.258,0,0,0,23.255,46.5a2.848,2.848,0,0,0,.9.149,3.048,3.048,0,0,0,2.88-2.256L30.024,34.24a4.986,4.986,0,0,0-2.042-5.465L22.2,25.144l2.954-7.865,1.913,4.163a4.54,4.54,0,0,0,4.068,2.7h5.094a3.221,3.221,0,0,0,0-6.429Z" transform="translate(98.885 40.33)" fill="#d37200"/><path d="M10.727,27.106l-1.4,3.468H3.019a3.222,3.222,0,0,0,0,6.43h7.308a4.522,4.522,0,0,0,4.162-2.923l.829-2.062-1.007-.633a9.4,9.4,0,0,1-3.585-4.281Zm25.505-9.393H32.078l-2.459-5.35A9.207,9.207,0,0,0,23.79,7.245L17.083,5.121A8.594,8.594,0,0,0,9.455,6.843L5.712,9.9a3.353,3.353,0,0,0-.559,4.507A2.9,2.9,0,0,0,9.387,15l3.745-3.055a2.8,2.8,0,0,1,2.384-.617l1.387.439-3.535,8.781a6.666,6.666,0,0,0,2.482,8.069l8.018,5.041-2.592,8.815A3.258,3.258,0,0,0,23.255,46.5a2.848,2.848,0,0,0,.9.149,3.048,3.048,0,0,0,2.88-2.256L30.024,34.24a4.986,4.986,0,0,0-2.042-5.465L22.2,25.144l2.954-7.865,1.913,4.163a4.54,4.54,0,0,0,4.068,2.7h5.094a3.221,3.221,0,0,0,0-6.429Z" transform="translate(160.885 40.33)" fill="#d37200"/><text transform="translate(195 88)" fill="#d37200" font-size="65" font-family="Pacifico-Regular, Pacifico"><tspan x="0" y="0">ngs</tspan></text><text transform="translate(133 87)" fill="#d37200" font-size="65" font-family="Pacifico-Regular, Pacifico"><tspan x="0" y="0">n</tspan></text><text transform="translate(133 87)" fill="#d37200" font-size="65" font-family="Pacifico-Regular, Pacifico"><tspan x="0" y="0">n</tspan></text><circle cx="5" cy="5" r="5" transform="translate(120 33)" fill="#d37200"/><circle cx="5" cy="5" r="5" transform="translate(182 33)" fill="#d37200"/></svg>