<svg xmlns="http://www.w3.org/2000/svg" width="203" height="87" viewBox="0 0 203 87"><g style="isolation:isolate"><text transform="translate(0 63)" fill="#d37200" font-size="48" font-family="Pacifico-Regular, Pacifico"><tspan x="0" y="0">Tra</tspan></text><path d="M7.124,17.984,6.2,20.03H2.005a1.9,1.9,0,1,0,0,3.795H6.858A3.01,3.01,0,0,0,9.622,22.1l.551-1.217L9.5,20.51a5.762,5.762,0,0,1-2.38-2.526Zm16.937-5.543H21.3L19.669,9.284A5.949,5.949,0,0,0,15.8,6.264L11.344,5.01A6.257,6.257,0,0,0,6.279,6.026l-2.486,1.8a1.829,1.829,0,0,0-.371,2.66,2.082,2.082,0,0,0,2.811.351l2.487-1.8A2.036,2.036,0,0,1,10.3,8.673l.921.259L8.877,14.114a3.7,3.7,0,0,0,1.648,4.762L15.85,21.85l-1.721,5.2a1.88,1.88,0,0,0,1.314,2.377,2.108,2.108,0,0,0,.6.088,2,2,0,0,0,1.912-1.331l1.982-5.992a2.792,2.792,0,0,0-1.356-3.225l-3.837-2.143,1.962-4.641,1.27,2.456a3.047,3.047,0,0,0,2.7,1.594h3.383a1.9,1.9,0,1,0,0-3.794Z" transform="translate(73 34.464)" fill="#d37200"/><path d="M7.124,17.984,6.2,20.03H2.005a1.9,1.9,0,1,0,0,3.795H6.858A3.01,3.01,0,0,0,9.622,22.1l.551-1.217L9.5,20.51a5.762,5.762,0,0,1-2.38-2.526Zm16.937-5.543H21.3L19.669,9.284A5.949,5.949,0,0,0,15.8,6.264L11.344,5.01A6.257,6.257,0,0,0,6.279,6.026l-2.486,1.8a1.829,1.829,0,0,0-.371,2.66,2.082,2.082,0,0,0,2.811.351l2.487-1.8A2.036,2.036,0,0,1,10.3,8.673l.921.259L8.877,14.114a3.7,3.7,0,0,0,1.648,4.762L15.85,21.85l-1.721,5.2a1.88,1.88,0,0,0,1.314,2.377,2.108,2.108,0,0,0,.6.088,2,2,0,0,0,1.912-1.331l1.982-5.992a2.792,2.792,0,0,0-1.356-3.225l-3.837-2.143,1.962-4.641,1.27,2.456a3.047,3.047,0,0,0,2.7,1.594h3.383a1.9,1.9,0,1,0,0-3.794Z" transform="translate(115 34.464)" fill="#d37200"/><text transform="translate(95 64)" fill="#d37200" font-size="48" font-family="Pacifico-Regular, Pacifico"><tspan x="0" y="0">n</tspan></text><text transform="translate(138 65)" fill="#d37200" font-size="48" font-family="Pacifico-Regular, Pacifico"><tspan x="0" y="0">ngs</tspan></text><circle cx="3.5" cy="3.5" r="3.5" transform="translate(85 26)" fill="#d37200"/><circle cx="3.5" cy="3.5" r="3.5" transform="translate(125 26)" fill="#d37200"/></g></svg>