<svg xmlns="http://www.w3.org/2000/svg" width="38.768" height="60.42" viewBox="0 0 38.768 60.42"><g transform="translate(-54.05 55.464)"><g transform="translate(54.05 -58.464)"><path d="M12.27,289.336a4.5,4.5,0,1,0-4.5,4.5,4.5,4.5,0,0,0,4.5-4.5Z" transform="translate(5.135 -281.836)" fill="#d37200"/><path d="M5.2,288.249c2.188,5.109,6.851,6.813,10.509,3.84l2.678-1.962c2.874-3.032,6.5-4.249,10.032-3.362s6.641,3.8,8.6,8.046a4.068,4.068,0,0,1-.65,4.419c-1.04.966-2.436.554-3.118-.921-1.943-4.2-5.524-6.256-8.983-5.147a1.183,1.183,0,0,0-.7.829,1.948,1.948,0,0,0,.064,1.288l15.782,37.057a4.917,4.917,0,0,1-.935,5.357c-1.3,1.113-2.994.52-3.779-1.325l-7.376-17.324c-.262-.617-.809-.857-1.271-.559l-4.914,3.152a.6.6,0,0,0-.236.488.65.65,0,0,0,.2.521l4.3,3.5a4.877,4.877,0,0,1,1.017,5.325c-.757,1.868-2.439,2.514-3.757,1.441l-9.056-7.37a5.018,5.018,0,0,1-1.551-4.02,4.672,4.672,0,0,1,1.818-3.788l7.111-4.56L15.466,300.2a.916.916,0,0,0-1.066-.654c-5.107,1.543-10.343-1.661-13.052-7.987a4.017,4.017,0,0,1,.785-4.313c1.044-.9,2.4-.454,3.063,1Z" transform="translate(-1.05 -274.836)" fill="#d37200"/></g></g></svg>