<svg xmlns="http://www.w3.org/2000/svg" width="50" height="61.536" viewBox="0 0 50 61.536"><path d="M32.692,11.538a5.769,5.769,0,1,0-5.769-5.769A5.769,5.769,0,0,0,32.692,11.538ZM13.665,38.157l-1.779,4.149H3.846a3.846,3.846,0,1,0,0,7.692h9.309a5.757,5.757,0,0,0,5.3-3.5l1.056-2.466-1.282-.757a11.445,11.445,0,0,1-4.566-5.121ZM46.154,26.922H40.862l-3.132-6.4A11.533,11.533,0,0,0,30.3,14.4l-8.543-2.541a11.49,11.49,0,0,0-9.716,2.06L7.276,17.573a3.846,3.846,0,1,0,4.68,6.1l4.77-3.655a3.743,3.743,0,0,1,3.037-.738l1.767.525-4.5,10.5a7.713,7.713,0,0,0,3.161,9.653L30.4,46,27.1,56.54a3.846,3.846,0,1,0,7.34,2.3l3.8-12.147a5.793,5.793,0,0,0-2.6-6.537L28.284,35.81,32.047,26.4l2.436,4.98a5.8,5.8,0,0,0,5.181,3.232h6.489a3.846,3.846,0,1,0,0-7.691Z" fill="#d37200"/></svg>