<svg xmlns="http://www.w3.org/2000/svg" width="25" height="18.333" viewBox="0 0 25 18.333"><g transform="translate(17 -84)"><g transform="translate(-17 84)"><path d="M9.833,5A2.607,2.607,0,0,0,7.155,7.5a2.382,2.382,0,0,0,.65,1.61l-2.64,4.269a2.819,2.819,0,0,0-.487-.046A2.607,2.607,0,0,0,2,15.833a2.607,2.607,0,0,0,2.679,2.5,2.607,2.607,0,0,0,2.679-2.5,2.381,2.381,0,0,0-.652-1.61l2.64-4.269a2.629,2.629,0,0,0,.975,0l5.734,9.269a2.381,2.381,0,0,0-.652,1.61,2.685,2.685,0,0,0,5.357,0,2.382,2.382,0,0,0-.65-1.61L23.833,13.2a2.82,2.82,0,0,0,.488.046A2.607,2.607,0,0,0,27,10.745a2.685,2.685,0,0,0-5.357,0,2.382,2.382,0,0,0,.651,1.61l-3.725,6.024a2.629,2.629,0,0,0-.975,0L11.86,9.11a2.381,2.381,0,0,0,.652-1.61A2.607,2.607,0,0,0,9.833,5Z" transform="translate(-2 -5)" fill="#a0aec0"/></g></g></svg>