<svg xmlns="http://www.w3.org/2000/svg" width="20.55" height="25.801" viewBox="0 0 20.55 25.801"><g transform="translate(-5.725 -3.099)"><circle cx="2.4" cy="2.4" r="2.4" transform="translate(13.6 6.633)" fill="#a0aec0"/><path d="M25.475,3.1h-1a.8.8,0,0,0-.8.8V5.067H23.27a1.01,1.01,0,0,0-.358-.3,1,1,0,0,0-1.235.3H10.325a.99.99,0,0,0-1.594,0H8.325V3.9a.8.8,0,0,0-.8-.8h-1a.8.8,0,0,0-.8.8V7.433a.8.8,0,0,0,.8.8h1a.8.8,0,0,0,.8-.8V6.267H8.7l3.971,8.185V27.5a1.4,1.4,0,0,0,2.8,0V20.9h1.05v6.6a1.4,1.4,0,0,0,2.8,0V14.451l3.97-8.185h.38V7.433a.8.8,0,0,0,.8.8h1a.8.8,0,0,0,.8-.8V3.9A.8.8,0,0,0,25.475,3.1Zm-7.329,9.2H13.855L10.928,6.267H21.073Z" fill="#a0aec0"/></g></svg>